<?xml version="1.0" encoding="UTF-8" standalone="no"?>
<!DOCTYPE svg PUBLIC "-//W3C//DTD SVG 1.1//EN" "http://www.w3.org/Graphics/SVG/1.1/DTD/svg11.dtd">
<svg width="100%" height="100%" viewBox="0 0 1241 1241" version="1.1" xmlns="http://www.w3.org/2000/svg" xmlns:xlink="http://www.w3.org/1999/xlink" xml:space="preserve" xmlns:serif="http://www.serif.com/" style="fill-rule:evenodd;clip-rule:evenodd;stroke-linejoin:round;stroke-miterlimit:2;">
    <g transform="matrix(0.63711,0,0,0.63711,-109.062,-394.703)">
        <circle cx="1142.32" cy="1590.27" r="367.345" style="fill:white;"/>
    </g>
    <g transform="matrix(1,0,0,1,-397.031,-637.087)">
        <circle cx="637.945" cy="1039.3" r="148.992" style="fill:white;"/>
    </g>
    <g transform="matrix(1,0,0,1,358.893,-204.302)">
        <circle cx="637.945" cy="1039.3" r="148.992" style="fill:white;fill-opacity:0.75;"/>
    </g>
    <g transform="matrix(1,0,0,1,-18.0626,8.55692)">
        <circle cx="637.945" cy="1039.3" r="148.992" style="fill:white;"/>
    </g>
    <g transform="matrix(1,0,0,1,-18.7399,-849.929)">
        <circle cx="637.945" cy="1039.3" r="148.992" style="fill:white;fill-opacity:0.75;"/>
    </g>
    <g transform="matrix(1,0,0,1,358.763,-637.161)">
        <circle cx="637.945" cy="1039.3" r="148.992" style="fill:white;"/>
    </g>
    <g transform="matrix(1,0,0,1,-397.792,-204.186)">
        <circle cx="637.945" cy="1039.3" r="148.992" style="fill:white;fill-opacity:0.75;"/>
    </g>
</svg>
